<svg width="24" height="24" viewBox="0 0 24 24" fill="none" xmlns="http://www.w3.org/2000/svg">
<rect width="24" height="24" fill="white"/>
<path fill-rule="evenodd" clip-rule="evenodd" d="M2.40002 5.09981C2.40002 3.27727 3.87748 1.7998 5.70002 1.7998H18.3C20.1226 1.7998 21.6 3.27727 21.6 5.09981V15.1097C21.6 16.9322 20.1226 18.4097 18.3 18.4097H12.3272L8.054 21.9897C7.78598 22.2142 7.41218 22.2632 7.09535 22.1153C6.77853 21.9674 6.57602 21.6495 6.57602 21.2998V18.4097H5.70002C3.87748 18.4097 2.40002 16.9322 2.40002 15.1097V5.09981ZM5.70002 3.5998C4.8716 3.5998 4.20002 4.27138 4.20002 5.09981V15.1097C4.20002 15.9381 4.8716 16.6097 5.70002 16.6097H7.47602C7.97308 16.6097 8.37602 17.0126 8.37602 17.5097V19.3717L11.422 16.8198C11.5841 16.6841 11.7887 16.6097 12 16.6097H18.3C19.1284 16.6097 19.8 15.9381 19.8 15.1097V5.09981C19.8 4.27138 19.1285 3.5998 18.3 3.5998H5.70002Z" fill="#1E79B5"/>
</svg>
