<svg width="16" height="16" viewBox="0 0 16 16" fill="none" xmlns="http://www.w3.org/2000/svg">
<path d="M7.68339 8.34651C8.60204 8.34651 9.34675 7.60179 9.34675 6.68314C9.34675 5.76449 8.60204 5.01978 7.68339 5.01978C6.76473 5.01978 6.02002 5.76449 6.02002 6.68314C6.02002 7.60179 6.76473 8.34651 7.68339 8.34651Z" stroke="#1E79B5" stroke-width="1.38614" stroke-miterlimit="10"/>
<path d="M12.6038 6.68309C12.6038 3.91081 10.3859 1.69299 7.61366 1.69299C4.84139 1.69299 2.69287 3.91081 2.69287 6.68309C2.69287 8.27715 3.52455 9.52468 4.56416 10.5643C5.46515 11.4653 7.68297 13.9603 7.68297 13.9603C7.68297 13.9603 9.83149 11.6039 10.8018 10.5643C11.7721 9.52468 12.6038 8.20784 12.6038 6.68309Z" stroke="#07BEF2" stroke-width="1.38614" stroke-miterlimit="10"/>
</svg>
