<svg width="24" height="24" viewBox="0 0 24 24" fill="none" xmlns="http://www.w3.org/2000/svg">
<rect width="24" height="24" fill="white"/>
<path fill-rule="evenodd" clip-rule="evenodd" d="M12.0002 2.99995C7.02963 2.99995 3.0002 7.02939 3.0002 12C3.0002 16.9705 7.02963 21 12.0002 21C16.9708 21 21.0002 16.9705 21.0002 12C21.0002 7.02939 16.9708 2.99995 12.0002 2.99995ZM1.2002 12C1.2002 6.03528 6.03552 1.19995 12.0002 1.19995C17.9649 1.19995 22.8002 6.03528 22.8002 12C22.8002 17.9646 17.9649 22.7999 12.0002 22.7999C6.03552 22.7999 1.2002 17.9646 1.2002 12ZM8.0638 8.06355C8.41527 7.71208 8.98512 7.71208 9.33659 8.06355L12.0002 10.7272L14.6638 8.06355C15.0153 7.71208 15.5851 7.71208 15.9366 8.06355C16.2881 8.41503 16.2881 8.98487 15.9366 9.33635L13.273 12L15.9366 14.6636C16.2881 15.015 16.2881 15.5849 15.9366 15.9363C15.5851 16.2878 15.0153 16.2878 14.6638 15.9363L12.0002 13.2727L9.33659 15.9363C8.98512 16.2878 8.41527 16.2878 8.0638 15.9363C7.71233 15.5849 7.71233 15.015 8.0638 14.6636L10.7274 12L8.0638 9.33635C7.71233 8.98487 7.71233 8.41503 8.0638 8.06355Z" fill="url(#paint0_radial_556_3546)"/>
<defs>
<radialGradient id="paint0_radial_556_3546" cx="0" cy="0" r="1" gradientUnits="userSpaceOnUse" gradientTransform="translate(1.2002 1.19995) rotate(45.8559) scale(31.0137)">
<stop stop-color="#6BD3F1"/>
<stop offset="1" stop-color="#4398CF"/>
</radialGradient>
</defs>
</svg>
