<svg width="27" height="27" viewBox="0 0 27 27" fill="none" xmlns="http://www.w3.org/2000/svg">
<rect x="0.5" y="0.5" width="26" height="26" rx="9.5" stroke="#1E79B5"/>
<g clip-path="url(#clip0_301_3158)">
<path d="M15.0994 14.0124L19.772 9.33967C20.076 9.03573 20.076 8.5443 19.772 8.24036C19.468 7.93642 18.9766 7.93642 18.6727 8.24036L13.9999 12.9131L9.32737 8.24036C9.02329 7.93642 8.532 7.93642 8.22806 8.24036C7.92398 8.5443 7.92398 9.03573 8.22806 9.33967L12.9006 14.0124L8.22806 18.6851C7.92398 18.989 7.92398 19.4804 8.22806 19.7844C8.37953 19.936 8.5787 20.0122 8.77772 20.0122C8.97674 20.0122 9.17576 19.936 9.32737 19.7844L13.9999 15.1117L18.6727 19.7844C18.8243 19.936 19.0233 20.0122 19.2223 20.0122C19.4213 20.0122 19.6203 19.936 19.772 19.7844C20.076 19.4804 20.076 18.989 19.772 18.6851L15.0994 14.0124Z" fill="#1E79B5"/>
</g>
<defs>
<clipPath id="clip0_301_3158">
<rect width="12" height="12" fill="white" transform="translate(8 8)"/>
</clipPath>
</defs>
</svg>
