<svg width="16" height="16" viewBox="0 0 16 16" fill="none" xmlns="http://www.w3.org/2000/svg">
<path d="M5.75511 11.6496L2.99547 8.88997C2.86529 8.7598 2.86529 8.54874 2.99547 8.41857L9.74891 1.66513C10.0342 1.37985 10.6047 1.37985 10.89 1.66513L12.7443 3.51939C13.0295 3.80466 13.0295 4.3752 12.7443 4.66047L5.75511 11.6496ZM5.75511 11.6496C5.82643 11.6496 5.82643 11.6496 5.75511 11.6496Z" stroke="#07BEF2" stroke-width="1.42636" stroke-miterlimit="10"/>
<path d="M2.68849 8.79695L2.04663 12.2202C2.04663 12.2915 2.11795 12.3628 2.18927 12.3628L5.61252 11.7923C5.75516 11.7923 5.75516 11.6497 5.68384 11.5783L2.90244 8.79695C2.83113 8.65431 2.68849 8.72563 2.68849 8.79695Z" stroke="#07BEF2" stroke-width="1.42636" stroke-miterlimit="10"/>
<path d="M1.61865 15.2869H14.7411" stroke="#07BEF2" stroke-width="1.42636" stroke-miterlimit="10"/>
</svg>
