<svg width="32" height="32" viewBox="0 0 32 32" fill="none" xmlns="http://www.w3.org/2000/svg">
<g clip-path="url(#clip0_236_3205)">
<path d="M1.81787 20.9573C2.34992 20.8105 2.6622 20.2603 2.51537 19.7282C-0.203993 9.87311 8.24319 0.491849 18.3532 2.20343C18.8972 2.29555 19.4132 1.92913 19.5053 1.38502C19.5975 0.840911 19.231 0.325094 18.6869 0.232973C7.10207 -1.72949 -2.5094 9.03177 0.58875 20.2598C0.735332 20.791 1.28487 21.1043 1.81787 20.9573Z" fill="url(#paint0_radial_236_3205)"/>
<path d="M31.7665 13.313C31.6744 12.7689 31.1587 12.4027 30.6144 12.4946C30.0703 12.5868 29.7039 13.1025 29.796 13.6466C31.5096 23.7659 22.114 32.1999 12.2712 29.4839C11.7391 29.3373 11.189 29.6494 11.0421 30.1814C10.8952 30.7135 11.2075 31.2637 11.7396 31.4106C23.0103 34.5203 33.7216 24.8584 31.7665 13.313Z" fill="url(#paint1_radial_236_3205)"/>
<path d="M26.495 11.0009C29.5255 11.0009 31.9911 8.53535 31.9911 5.50484C31.9911 2.47433 29.5255 0.00878906 26.495 0.00878906C23.4645 0.00878906 20.999 2.47433 20.999 5.50484C20.999 8.53535 23.4644 11.0009 26.495 11.0009ZM26.495 2.00735C28.4236 2.00735 29.9925 3.57629 29.9925 5.50484C29.9925 7.43339 28.4236 9.00233 26.495 9.00233C24.5665 9.00233 22.9975 7.43339 22.9975 5.50484C22.9975 3.57629 24.5665 2.00735 26.495 2.00735Z" fill="url(#paint2_radial_236_3205)"/>
<path d="M5.51007 21.9927C3.03054 21.9927 1.01331 24.0099 1.01331 26.4894C1.01331 28.969 3.03054 30.9862 5.51007 30.9862C7.9896 30.9862 10.0068 28.969 10.0068 26.4894C10.0068 24.0099 7.9896 21.9927 5.51007 21.9927ZM5.51007 28.9876C4.13256 28.9876 3.01187 27.867 3.01187 26.4894C3.01187 25.1119 4.13256 23.9912 5.51007 23.9912C6.88758 23.9912 8.00828 25.1119 8.00828 26.4894C8.00828 27.867 6.88752 28.9876 5.51007 28.9876Z" fill="url(#paint3_radial_236_3205)"/>
<path d="M12.0054 22.9919H14.004V23.9912C14.004 24.5431 14.4514 24.9905 15.0033 24.9905C15.5552 24.9905 16.0026 24.5431 16.0026 23.9912V22.9919H16.5022C18.9818 22.9919 20.999 20.9747 20.999 18.4952C20.999 16.7008 19.9422 15.1491 18.4186 14.4283C19.8341 12.2956 18.5332 9.40188 16.0026 9.03827V8.0027C16.0026 7.45078 15.5552 7.00342 15.0033 7.00342C14.4514 7.00342 14.004 7.45078 14.004 8.0027V9.00198H12.0054C11.4535 9.00198 11.0062 9.44935 11.0062 10.0013V21.9926C11.0062 22.5446 11.4535 22.9919 12.0054 22.9919ZM16.5022 20.9934H16.0026V19.9941C16.0026 19.4422 15.5552 18.9948 15.0033 18.9948C14.4514 18.9948 14.004 19.4422 14.004 19.9941V20.9934H13.0047V15.997H16.5022C17.8797 15.997 19.0004 17.1176 19.0004 18.4952C19.0004 19.8727 17.8797 20.9934 16.5022 20.9934ZM13.0047 11.0005H15.5029C16.3294 11.0005 17.0019 11.673 17.0019 12.4995C17.0019 13.3259 16.3294 13.9984 15.5029 13.9984H13.0047V11.0005Z" fill="url(#paint4_radial_236_3205)"/>
</g>
<defs>
<radialGradient id="paint0_radial_236_3205" cx="0" cy="0" r="1" gradientUnits="userSpaceOnUse" gradientTransform="translate(0.0012207) rotate(47.9383) scale(29.1348 28.9946)">
<stop stop-color="#6BD3F1"/>
<stop offset="1" stop-color="#4398CF"/>
</radialGradient>
<radialGradient id="paint1_radial_236_3205" cx="0" cy="0" r="1" gradientUnits="userSpaceOnUse" gradientTransform="translate(11.0058 12.4805) rotate(43.7714) scale(29.0718 29.0581)">
<stop stop-color="#6BD3F1"/>
<stop offset="1" stop-color="#4398CF"/>
</radialGradient>
<radialGradient id="paint2_radial_236_3205" cx="0" cy="0" r="1" gradientUnits="userSpaceOnUse" gradientTransform="translate(20.999 0.00878906) rotate(45.8559) scale(15.7827)">
<stop stop-color="#6BD3F1"/>
<stop offset="1" stop-color="#4398CF"/>
</radialGradient>
<radialGradient id="paint3_radial_236_3205" cx="0" cy="0" r="1" gradientUnits="userSpaceOnUse" gradientTransform="translate(1.01331 21.9927) rotate(45.8559) scale(12.9131)">
<stop stop-color="#6BD3F1"/>
<stop offset="1" stop-color="#4398CF"/>
</radialGradient>
<radialGradient id="paint4_radial_236_3205" cx="0" cy="0" r="1" gradientUnits="userSpaceOnUse" gradientTransform="translate(11.0062 7.00342) rotate(61.6664) scale(21.0551 17.5992)">
<stop stop-color="#6BD3F1"/>
<stop offset="1" stop-color="#4398CF"/>
</radialGradient>
<clipPath id="clip0_236_3205">
<rect width="32" height="32" fill="white"/>
</clipPath>
</defs>
</svg>
