<svg width="32" height="32" viewBox="0 0 32 32" fill="none" xmlns="http://www.w3.org/2000/svg">
<g clip-path="url(#clip0_236_3211)">
<path d="M18.5 17.8745C23.428 17.8745 27.4372 13.8653 27.4372 8.93724C27.4372 4.00919 23.428 0 18.5 0C13.5719 0 9.56274 4.00919 9.56274 8.93724C9.56274 13.8653 13.572 17.8745 18.5 17.8745ZM18.5 1.87495C22.3942 1.87495 25.5623 5.04304 25.5623 8.93724C25.5623 12.8314 22.3942 15.9995 18.5 15.9995C14.6058 15.9995 11.4377 12.8314 11.4377 8.93724C11.4377 5.04304 14.6058 1.87495 18.5 1.87495Z" fill="url(#paint0_radial_236_3211)"/>
<path d="M27.1277 18.25L16.3807 20.6955C16.1348 20.4721 15.8524 20.2845 15.5396 20.1438L10.0211 17.6681C8.41598 16.9457 6.57879 16.9546 4.98527 17.6901L0.549775 19.7084C0.0784763 19.9228 -0.129705 20.4787 0.0847886 20.9499C0.29922 21.4212 0.855079 21.6295 1.32631 21.4149L5.76643 19.3945C6.87153 18.8844 8.14187 18.8784 9.25271 19.3783L14.7712 21.854C15.2535 22.071 15.5626 22.5533 15.5626 23.078C15.5626 24.0482 14.5639 24.7046 13.6695 24.302L8.89784 22.1548C8.42554 21.9422 7.87069 22.1528 7.65825 22.6249C7.44576 23.0971 7.65632 23.6521 8.12843 23.8645L12.9001 26.0118C15.3002 27.0919 17.9275 24.9791 17.3637 22.3945C24.3638 20.8017 27.5839 20.07 27.6286 20.0568C28.8921 19.6833 30.1247 20.6322 30.1247 21.9196C30.1247 22.6028 29.7595 23.2436 29.1739 23.5905L19.074 29.539C18.0086 30.1703 16.7272 30.2976 15.5585 29.8882L7.81 27.1764C7.60119 27.1033 7.37326 27.1064 7.16658 27.1852L0.604273 29.6851C0.120413 29.8694 -0.12233 30.4111 0.0619768 30.8949C0.246284 31.3787 0.787956 31.6215 1.27175 31.4372L7.51395 29.0592L14.9389 31.6578C16.5976 32.2388 18.4562 32.0843 20.0276 31.1533L30.1275 25.2048C31.2823 24.5206 31.9996 23.2619 31.9996 21.9196C31.9996 19.4059 29.5924 17.5428 27.1277 18.25Z" fill="url(#paint1_radial_236_3211)"/>
</g>
<defs>
<radialGradient id="paint0_radial_236_3211" cx="0" cy="0" r="1" gradientUnits="userSpaceOnUse" gradientTransform="translate(9.56274) rotate(45.8559) scale(25.6646)">
<stop stop-color="#6BD3F1"/>
<stop offset="1" stop-color="#4398CF"/>
</radialGradient>
<radialGradient id="paint1_radial_236_3211" cx="0" cy="0" r="1" gradientUnits="userSpaceOnUse" gradientTransform="translate(0.000305176 17.1323) rotate(25.5806) scale(35.4768 27.6457)">
<stop stop-color="#6BD3F1"/>
<stop offset="1" stop-color="#4398CF"/>
</radialGradient>
<clipPath id="clip0_236_3211">
<rect width="32" height="32" fill="white"/>
</clipPath>
</defs>
</svg>
