<svg width="32" height="32" viewBox="0 0 32 32" fill="none" xmlns="http://www.w3.org/2000/svg">
<g clip-path="url(#clip0_236_3202)">
<path d="M28.3334 32.0002H3.6669C1.64421 32.0002 0.000427246 30.3562 0.000427246 28.3338V9.00045C0.000427246 6.97777 1.64421 5.33398 3.6669 5.33398H8.3336C8.88559 5.33398 9.33359 5.78198 9.33359 6.33397C9.33359 6.88597 8.88559 7.33396 8.3336 7.33396H3.6669C2.7482 7.33396 2.00041 8.08176 2.00041 9.00045V28.3338C2.00041 29.2522 2.7482 30.0002 3.6669 30.0002H28.3334C29.2521 30.0002 30.0001 29.2522 30.0001 28.3338V17.0004C30.0001 16.4484 30.4481 16.0004 31.0001 16.0004C31.5521 16.0004 32.0001 16.4484 32.0001 17.0004V28.3338C32.0001 30.3562 30.3561 32.0002 28.3334 32.0002Z" fill="url(#paint0_radial_236_3202)"/>
<path d="M8.99889 21.3162C8.92565 21.3162 8.85216 21.3081 8.77892 21.2893C8.32702 21.1841 8.00037 20.7974 8.00037 20.3335V18.3336C8.00037 11.1657 13.8323 5.33369 21.0002 5.33369H21.3335V1.00024C21.3335 0.592281 21.5815 0.225585 21.9602 0.0722666C22.3374 -0.0795874 22.7707 0.0122085 23.0534 0.306883L31.7201 9.30679C32.0934 9.69351 32.0934 10.3068 31.7201 10.6935L23.0534 19.6934C22.7707 19.9881 22.3347 20.0789 21.9602 19.928C21.5815 19.7747 21.3335 19.408 21.3335 19.0001V14.6668H19.7495C15.555 14.6668 11.7855 16.9974 9.91099 20.7481C9.73887 21.0948 9.37755 21.3162 8.99889 21.3162ZM21.0002 7.33367C15.4002 7.33367 10.763 11.5402 10.0843 16.96C12.5081 14.2562 15.9842 12.6669 19.7495 12.6669H22.3335C22.8855 12.6669 23.3335 13.1149 23.3335 13.6669V16.5201L29.612 10.0001L23.3335 3.48019V6.33368C23.3335 6.88568 22.8855 7.33367 22.3335 7.33367H21.0002Z" fill="url(#paint1_radial_236_3202)"/>
</g>
<defs>
<radialGradient id="paint0_radial_236_3202" cx="0" cy="0" r="1" gradientUnits="userSpaceOnUse" gradientTransform="translate(0.000427246 5.33398) rotate(40.6495) scale(42.1765 41.7098)">
<stop stop-color="#6BD3F1"/>
<stop offset="1" stop-color="#4398CF"/>
</radialGradient>
<radialGradient id="paint1_radial_236_3202" cx="0" cy="0" r="1" gradientUnits="userSpaceOnUse" gradientTransform="translate(8.00037) rotate(42.4624) scale(32.5323 32.4192)">
<stop stop-color="#6BD3F1"/>
<stop offset="1" stop-color="#4398CF"/>
</radialGradient>
<clipPath id="clip0_236_3202">
<rect width="32" height="32" fill="white"/>
</clipPath>
</defs>
</svg>
