<svg width="16" height="16" viewBox="0 0 16 16" fill="none" xmlns="http://www.w3.org/2000/svg">
<path fill-rule="evenodd" clip-rule="evenodd" d="M8.07839 1.61874C6.71133 1.61874 5.60312 2.72695 5.60312 4.094C5.60312 5.46106 6.71133 6.56927 8.07839 6.56927C9.44544 6.56927 10.5537 5.46106 10.5537 4.094C10.5537 2.72695 9.44544 1.61874 8.07839 1.61874ZM4.36549 4.094C4.36549 2.04343 6.02781 0.381104 8.07839 0.381104C10.129 0.381104 11.7913 2.04343 11.7913 4.094C11.7913 6.14458 10.129 7.80691 8.07839 7.80691C6.02781 7.80691 4.36549 6.14458 4.36549 4.094Z" fill="#1E79B5"/>
<path fill-rule="evenodd" clip-rule="evenodd" d="M8.15514 8.67791L8.07839 9.29195L8.027 8.67527L8.09121 8.66992L8.15514 8.67791ZM12.5228 12.3212C12.5127 12.2216 12.4965 12.1097 12.4708 11.9923C12.3795 11.575 12.1882 11.1666 11.8193 10.9207C11.6128 10.783 11.2832 10.6414 10.8659 10.5079C10.4579 10.3773 10.0043 10.2663 9.5753 10.176C9.14762 10.0859 8.75251 10.0182 8.46401 9.97291C8.32001 9.95032 8.2032 9.93344 8.12292 9.92227C8.10126 9.91926 8.08228 9.91666 8.06615 9.91448C8.05046 9.91599 8.03203 9.91781 8.01104 9.91994C7.93169 9.92799 7.81595 9.94053 7.67313 9.95826C7.38685 9.99382 6.99501 10.0498 6.57125 10.1316C6.14583 10.2137 5.69854 10.3198 5.29795 10.4534C4.88805 10.59 4.57093 10.7412 4.37411 10.8943C3.96759 11.2105 3.77408 11.6485 3.68506 12.0428C3.66185 12.1455 3.64649 12.2424 3.63645 12.3292C3.81656 12.3859 4.0624 12.4549 4.37596 12.5245C5.16675 12.7003 6.39029 12.8811 8.07839 12.8811C9.703 12.8811 10.9274 12.7006 11.7367 12.524C12.0687 12.4516 12.3311 12.3798 12.5228 12.3212ZM3.00409 12.7573C2.38741 12.8087 2.38739 12.8085 2.38737 12.8082L2.38723 12.8065L2.38701 12.8038L2.38649 12.7966L2.38516 12.7758C2.38421 12.7591 2.38316 12.7368 2.38238 12.7095C2.38082 12.6549 2.38031 12.5797 2.38378 12.4883C2.39069 12.3063 2.41357 12.0547 2.47782 11.7702C2.60539 11.2052 2.90693 10.4675 3.61428 9.91736C3.97439 9.63727 4.44627 9.43267 4.90658 9.27923C5.3762 9.12269 5.88034 9.00448 6.33673 8.9164C6.79479 8.82801 7.21515 8.768 7.52061 8.73006C7.67366 8.71106 7.79868 8.69749 7.88612 8.68862C7.92986 8.68419 7.96426 8.68092 7.98812 8.67872L8.01589 8.67623L8.02358 8.67556L8.027 8.67527C8.0271 8.67526 8.027 8.67527 8.07839 9.29195C8.15514 8.67791 8.15506 8.6779 8.15514 8.67791L8.15827 8.67831L8.16566 8.67925L8.19281 8.68278C8.21625 8.68587 8.2502 8.69042 8.29347 8.69644C8.37998 8.70848 8.50393 8.7264 8.6558 8.75023C8.95904 8.7978 9.37613 8.86927 9.83026 8.96488C10.283 9.0602 10.7809 9.18122 11.2431 9.32913C11.696 9.47405 12.1554 9.65732 12.5058 9.89094C13.2508 10.3876 13.5546 11.155 13.6799 11.7278C13.7438 12.02 13.7663 12.2826 13.773 12.4722C13.7765 12.5677 13.7759 12.6464 13.7744 12.7032C13.7737 12.7316 13.7727 12.7547 13.7718 12.7718L13.7705 12.793L13.77 12.8001L13.7698 12.8027L13.7698 12.8038C13.7697 12.8041 13.7697 12.8048 13.1527 12.7573C13.3964 13.3261 13.3962 13.3262 13.396 13.3263L13.3946 13.3269L13.3921 13.328L13.3851 13.3309L13.3636 13.3397C13.3458 13.3468 13.3212 13.3565 13.2898 13.3683C13.2271 13.392 13.1373 13.4242 13.0206 13.462C12.7873 13.5377 12.4466 13.6359 12.0006 13.7332C11.1082 13.9279 9.79539 14.1187 8.07839 14.1187C6.30111 14.1187 4.9875 13.9283 4.10748 13.7327C3.66762 13.635 3.3366 13.536 3.11063 13.4593C2.99766 13.4209 2.911 13.3881 2.85017 13.3638C2.81975 13.3516 2.7958 13.3416 2.77825 13.334L2.75673 13.3246L2.74956 13.3214L2.74686 13.3202L2.74574 13.3196C2.7455 13.3195 2.74477 13.3192 3.00409 12.7573ZM3.00409 12.7573L2.38737 12.8082L2.41736 13.1681L2.74477 13.3192L3.00409 12.7573ZM13.1527 12.7573L13.7698 12.8038L13.7409 13.1785L13.396 13.3263L13.1527 12.7573ZM12.5355 12.7124C12.5355 12.7128 12.5355 12.7127 12.5355 12.7124V12.7124Z" fill="#07BEF2"/>
</svg>
