<svg width="16" height="16" viewBox="0 0 16 16" fill="none" xmlns="http://www.w3.org/2000/svg">
<path d="M4.49414 3.27902C4.49414 2.34384 5.24228 1.5957 6.17746 1.5957C7.11263 1.5957 7.86078 2.34384 7.86078 3.27902" stroke="#07BEF2" stroke-width="1.2469" stroke-miterlimit="10"/>
<path d="M7.86084 3.27902C7.86084 2.34384 8.60898 1.5957 9.54416 1.5957C10.4793 1.5957 11.2275 2.34384 11.2275 3.27902" stroke="#07BEF2" stroke-width="1.2469" stroke-miterlimit="10"/>
<path d="M7.86084 3.77789V14.813" stroke="#07BEF2" stroke-width="1.2469" stroke-miterlimit="10"/>
<path d="M12.5367 15H3.24726C2.43677 15 1.75098 14.3142 1.75098 13.5037V5.27418C1.75098 4.46369 2.43677 3.77789 3.24726 3.77789H12.5367C13.3472 3.77789 14.033 4.46369 14.033 5.27418V13.5037C14.033 14.3142 13.3472 15 12.5367 15Z" stroke="#1E79B5" stroke-width="1.2469" stroke-miterlimit="10"/>
<path d="M1.75098 7.83029H13.9706" stroke="#1E79B5" stroke-width="1.2469" stroke-miterlimit="10"/>
</svg>
