<svg width="25" height="25" viewBox="0 0 25 25" fill="none" xmlns="http://www.w3.org/2000/svg">
<path fill-rule="evenodd" clip-rule="evenodd" d="M11.9786 9.37855C11.4036 9.37855 10.9369 8.91084 10.9369 8.33688C10.9369 7.76292 11.4036 7.29522 11.9786 7.29522C12.5536 7.29522 13.0203 7.76292 13.0203 8.33688C13.0203 8.91084 12.5536 9.37855 11.9786 9.37855ZM13.0203 16.6702H10.9369C10.6494 16.6702 10.4161 16.4369 10.4161 16.1494C10.4161 15.8619 10.6494 15.6285 10.9369 15.6285H11.4578V11.4619H10.9369C10.6494 11.4619 10.4161 11.2285 10.4161 10.941C10.4161 10.6535 10.6494 10.4202 10.9369 10.4202H11.9786C12.2661 10.4202 12.4994 10.6535 12.4994 10.941V15.6285H13.0203C13.3078 15.6285 13.5411 15.8619 13.5411 16.1494C13.5411 16.4369 13.3078 16.6702 13.0203 16.6702ZM11.9786 3.12855C7.09631 3.12855 3.12443 7.10042 3.12443 11.9827C3.12443 16.865 7.09631 20.8369 11.9786 20.8369C16.8609 20.8369 20.8328 16.865 20.8328 11.9827C20.8328 7.10042 16.8609 3.12855 11.9786 3.12855ZM11.9786 21.8785C6.52235 21.8785 2.08276 17.439 2.08276 11.9827C2.08276 6.52647 6.52235 2.08688 11.9786 2.08688C17.4348 2.08688 21.8744 6.52647 21.8744 11.9827C21.8744 17.439 17.4348 21.8785 11.9786 21.8785Z" fill="#07BEF2"/>
</svg>
