<svg width="60" height="60" viewBox="0 0 60 60" fill="none" xmlns="http://www.w3.org/2000/svg">
<path d="M0 5.45454C0 2.44208 2.44208 0 5.45455 0H30C46.5685 0 60 13.4315 60 30C60 46.5685 46.5685 60 30 60C13.4315 60 0 46.5685 0 30V5.45454Z" fill="#4CAF50"/>
<g clip-path="url(#clip0_138_5000)">
<path d="M30 13.7085C20.6288 13.7085 13 19.939 13 27.5961C13 34.4542 19.0492 40.2002 27.2162 41.2924C27.7702 41.41 28.5238 41.6607 28.7151 42.1339C28.8851 42.5632 28.827 43.2262 28.7689 43.6738L28.5366 45.1273C28.4728 45.5566 28.1966 46.8174 30.0227 46.0467C31.8516 45.2789 39.8203 40.2327 43.3903 36.1032C45.8327 33.4115 47 30.6532 47 27.5961C47 19.939 39.3712 13.7085 30 13.7085ZM23.3459 32.1492H19.9657C19.477 32.1492 19.0733 31.7427 19.0733 31.2525V24.4511C19.0733 23.9595 19.477 23.5529 19.9657 23.5529C20.4587 23.5529 20.8582 23.9595 20.8582 24.4511V30.3543H23.3459C23.8389 30.3543 24.237 30.7581 24.237 31.2525C24.237 31.7427 23.8375 32.1492 23.3459 32.1492ZM26.8394 31.2525C26.8394 31.7427 26.4399 32.1492 25.9455 32.1492C25.4567 32.1492 25.0572 31.7427 25.0572 31.2525V24.4511C25.0572 23.9595 25.4567 23.5529 25.9497 23.5529C26.4399 23.5529 26.8394 23.9595 26.8394 24.4511V31.2525ZM34.9725 31.2525C34.9725 31.6378 34.726 31.9792 34.3605 32.1025C34.2698 32.1322 34.1721 32.1464 34.0786 32.1464C33.7797 32.1464 33.5247 32.0175 33.3561 31.7894L29.8952 27.0606V31.2511C29.8952 31.7412 29.4999 32.1478 29.0012 32.1478C28.5111 32.1478 28.1144 31.7412 28.1144 31.2511V24.4511C28.1144 24.0657 28.3595 23.7243 28.7236 23.6025C28.8086 23.5699 28.9163 23.5557 28.9984 23.5557C29.2747 23.5557 29.5297 23.7045 29.6997 23.9184L33.1875 28.6657V24.4511C33.1875 23.9595 33.587 23.5529 34.08 23.5529C34.5688 23.5529 34.9725 23.9595 34.9725 24.4511V31.2525ZM40.4337 26.9529C40.9282 26.9529 41.3263 27.3595 41.3263 27.8525C41.3263 28.3441 40.9282 28.7507 40.4337 28.7507H37.9475V30.3543H40.4337C40.9282 30.3543 41.3263 30.7581 41.3263 31.2525C41.3263 31.7427 40.9282 32.1492 40.4337 32.1492H37.0536C36.5648 32.1492 36.1653 31.7427 36.1653 31.2525V24.4511C36.1653 23.9595 36.5648 23.5529 37.0578 23.5529H40.438C40.9282 23.5529 41.3263 23.9595 41.3263 24.4511C41.3263 24.9483 40.9282 25.3492 40.4337 25.3492H37.9475V26.9529H40.4337Z" fill="white"/>
</g>
<defs>
<clipPath id="clip0_138_5000">
<rect width="34" height="34" fill="white" transform="translate(13 13)"/>
</clipPath>
</defs>
</svg>
