<svg width="24" height="24" viewBox="0 0 24 24" fill="none" xmlns="http://www.w3.org/2000/svg">
<path fill-rule="evenodd" clip-rule="evenodd" d="M12.1177 2.42823C10.0671 2.42823 8.40479 4.09055 8.40479 6.14113C8.40479 8.19171 10.0671 9.85403 12.1177 9.85403C14.1683 9.85403 15.8306 8.19171 15.8306 6.14113C15.8306 4.09055 14.1683 2.42823 12.1177 2.42823ZM6.54834 6.14113C6.54834 3.06526 9.04182 0.571777 12.1177 0.571777C15.1936 0.571777 17.687 3.06526 17.687 6.14113C17.687 9.217 15.1936 11.7105 12.1177 11.7105C9.04182 11.7105 6.54834 9.217 6.54834 6.14113Z" fill="#838282"/>
<path fill-rule="evenodd" clip-rule="evenodd" d="M12.2327 13.0169L12.1176 13.938L12.0405 13.013L12.1368 13.0049L12.2327 13.0169ZM18.7842 18.4819C18.7691 18.3325 18.7448 18.1647 18.7062 17.9885C18.5693 17.3625 18.2823 16.75 17.729 16.3811C17.4192 16.1746 16.9249 15.9622 16.2989 15.7619C15.6869 15.566 15.0065 15.3995 14.363 15.264C13.7214 15.129 13.1288 15.0273 12.696 14.9594C12.48 14.9255 12.3048 14.9002 12.1844 14.8835C12.1519 14.8789 12.1234 14.8751 12.0992 14.8718C12.0757 14.8741 12.0481 14.8768 12.0166 14.88C11.8975 14.892 11.7239 14.9109 11.5097 14.9375C11.0803 14.9908 10.4925 15.0748 9.85688 15.1975C9.21875 15.3206 8.54782 15.4798 7.94693 15.6801C7.33208 15.885 6.85641 16.1119 6.56118 16.3415C5.95139 16.8158 5.66112 17.4729 5.5276 18.0642C5.49278 18.2184 5.46974 18.3637 5.45469 18.4938C5.72484 18.5789 6.09361 18.6823 6.56395 18.7869C7.75013 19.0505 9.58544 19.3217 12.1176 19.3217C14.5545 19.3217 16.391 19.051 17.6051 18.7861C18.103 18.6775 18.4966 18.5697 18.7842 18.4819ZM4.50614 19.1361C3.58112 19.2131 3.58109 19.2128 3.58106 19.2124L3.58085 19.2098L3.58053 19.2057L3.57974 19.195L3.57775 19.1637C3.57632 19.1387 3.57475 19.1053 3.57358 19.0643C3.57124 18.9824 3.57047 18.8696 3.57568 18.7324C3.58605 18.4594 3.62037 18.0821 3.71674 17.6553C3.90809 16.8079 4.36041 15.7013 5.42142 14.8761C5.9616 14.456 6.66941 14.1491 7.35987 13.9189C8.0643 13.6841 8.82052 13.5068 9.50511 13.3747C10.1922 13.2421 10.8227 13.1521 11.2809 13.0952C11.5105 13.0666 11.698 13.0463 11.8292 13.033C11.8948 13.0263 11.9464 13.0214 11.9822 13.0181L12.0238 13.0144L12.0354 13.0134L12.0405 13.013C12.0407 13.013 12.0405 13.013 12.1176 13.938C12.2327 13.0169 12.2326 13.0169 12.2327 13.0169L12.2374 13.0175L12.2485 13.0189L12.2892 13.0242C12.3244 13.0289 12.3753 13.0357 12.4402 13.0447C12.57 13.0628 12.7559 13.0897 12.9837 13.1254C13.4386 13.1968 14.0642 13.304 14.7454 13.4474C15.4246 13.5904 16.1713 13.7719 16.8647 13.9938C17.544 14.2111 18.2331 14.486 18.7588 14.8365C19.8763 15.5815 20.3318 16.7326 20.5198 17.5918C20.6157 18.0301 20.6494 18.4239 20.6596 18.7084C20.6647 18.8516 20.6639 18.9696 20.6616 19.0549C20.6605 19.0975 20.659 19.1322 20.6576 19.1578L20.6558 19.1896L20.655 19.2002L20.6548 19.2042L20.6546 19.2058C20.6546 19.2062 20.6545 19.2072 19.729 19.1361C20.0947 19.9892 20.0944 19.9894 20.0941 19.9895L20.0919 19.9904L20.0881 19.992L20.0777 19.9964L20.0453 20.0096C20.0187 20.0203 19.9818 20.0348 19.9348 20.0526C19.8407 20.088 19.706 20.1363 19.531 20.193C19.181 20.3066 18.6699 20.4539 18.0008 20.5999C16.6623 20.8919 14.6931 21.1781 12.1176 21.1781C9.45167 21.1781 7.48126 20.8924 6.16123 20.5991C5.50144 20.4525 5.00491 20.3041 4.66595 20.189C4.4965 20.1315 4.3665 20.0822 4.27526 20.0457C4.22964 20.0275 4.19371 20.0124 4.16739 20.0011L4.1351 19.987L4.12434 19.9821L4.1203 19.9803L4.11862 19.9795C4.11826 19.9794 4.11716 19.9788 4.50614 19.1361ZM4.50614 19.1361L3.58106 19.2124L3.62604 19.7522L4.11716 19.9788L4.50614 19.1361ZM19.729 19.1361L20.6546 19.2058L20.6114 19.7678L20.0941 19.9895L19.729 19.1361ZM18.8033 19.0686C18.8032 19.0693 18.8032 19.0691 18.8033 19.0686V19.0686Z" fill="#838282"/>
</svg>
